<svg width="92" height="85" viewBox="0 0 92 85" fill="none" xmlns="http://www.w3.org/2000/svg">
<path d="M40.057 52.2539C48.6385 52.2539 55.5953 45.4141 55.5953 36.9768C55.5953 28.5395 48.6385 21.6997 40.057 21.6997C31.4754 21.6997 24.5187 28.5395 24.5187 36.9768C24.5187 45.4141 31.4754 52.2539 40.057 52.2539Z" fill="white"/>
<path d="M58.8925 59.5291C46.2658 69.7138 27.5782 67.9097 17.2094 55.5716C16.4073 54.6404 15.6645 53.622 15.0109 52.5744C12.129 47.8894 10.3762 42.6225 9.87109 37.1518C9.51457 33.1943 10.0196 29.2077 11.2972 25.4539C12.8421 21.6128 14.8029 17.9463 17.1797 14.5708C18.3978 12.6503 18.6949 11.1953 15.4268 12.5339C10.8812 15.1237 7.1972 18.8775 4.73127 23.417C2.62187 27.2581 1.16608 31.4193 0.334201 35.7259C0.126232 36.919 -2.54766 54.9896 11.5348 66.9785C14.0899 69.0445 16.9718 70.7032 20.0022 71.9544C25.5579 74.166 31.5593 75.0972 37.5607 74.6607C41.6607 74.2242 45.6716 73.0602 49.3556 71.2561C50.2172 70.8196 51.0491 70.3249 51.8512 69.772C56.991 66.2219 60.883 61.2459 63.0222 55.4552C61.7743 56.9684 60.378 58.336 58.8628 59.5582L58.8925 59.5291Z" fill="white"/>
<path d="M89.5239 21.467C87.5333 15.0361 83.6711 9.30356 78.4421 4.96778C73.0646 0.632001 65.9937 -0.968454 59.2495 0.573803C56.3974 1.33038 53.3669 3.51282 53.7235 6.33544C54.1691 7.9359 55.0901 9.36176 56.3973 10.4093C68.2516 22.4855 72.0545 40.1196 66.2313 55.8623C63.914 62.526 59.4872 68.2585 53.6046 72.2742C47.9894 75.9698 41.3938 77.8904 34.62 77.8322C29.1831 77.8322 23.7759 76.7846 18.7252 74.7477C15.5462 73.4673 12.6049 71.7504 9.93103 69.6553C14.9223 75.3005 21.2802 79.5781 28.47 82.1098C39.5815 85.8926 51.7032 85.5435 62.5473 81.1495C72.0545 77.1338 79.9573 70.2082 85.1566 61.4493C86.1073 59.8489 86.9986 58.1902 87.771 56.4734C92.7029 45.4157 93.3268 32.9321 89.4942 21.4379L89.5239 21.467Z" fill="white"/>
</svg>
