<svg width="592" height="99" viewBox="0 0 592 99" fill="none" xmlns="http://www.w3.org/2000/svg">
<g clip-path="url(#clip0_12_33)">
<path d="M40.049 54.6687C48.6306 54.6687 55.5873 47.8289 55.5873 39.3916C55.5873 30.9543 48.6306 24.1145 40.049 24.1145C31.4674 24.1145 24.5107 30.9543 24.5107 39.3916C24.5107 47.8289 31.4674 54.6687 40.049 54.6687Z" fill="white"/>
<path d="M58.8845 61.9439C46.2578 72.1286 27.5703 70.3245 17.2015 57.9864C16.3993 57.0552 15.6566 56.0367 15.003 54.9892C12.1211 50.3042 10.3682 45.0373 9.86315 39.5666C9.50663 35.6091 10.0117 31.6225 11.2892 27.8687C12.8341 24.0276 14.795 20.3611 17.1718 16.9856C18.3899 15.0651 18.687 13.6101 15.4189 14.9487C10.8733 17.5385 7.18926 21.2923 4.72334 25.8318C2.61393 29.6729 1.15814 33.8341 0.326267 38.1407C0.118297 39.3338 -2.5556 57.4044 11.5269 69.3933C14.082 71.4593 16.9638 73.118 19.9942 74.3692C25.55 76.5808 31.5514 77.512 37.5528 77.0755C41.6528 76.639 45.6636 75.475 49.3477 73.6709C50.2092 73.2344 51.0411 72.7397 51.8433 72.1868C56.9831 68.6367 60.8751 63.6607 63.0142 57.87C61.7664 59.3832 60.37 60.7508 58.8548 61.973L58.8845 61.9439Z" fill="white"/>
<path d="M89.516 23.8818C87.5254 17.4509 83.6631 11.7184 78.4342 7.38258C73.0567 3.0468 65.9857 1.44634 59.2416 2.9886C56.3894 3.74518 53.359 5.92762 53.7155 8.75024C54.1612 10.3507 55.0822 11.7766 56.3894 12.8241C68.2437 24.9003 72.0465 42.5344 66.2234 58.2771C63.906 64.9408 59.4793 70.6733 53.5967 74.689C47.9815 78.3846 41.3859 80.3052 34.612 80.247C29.1751 80.247 23.7679 79.1994 18.7172 77.1625C15.5383 75.8821 12.597 74.1652 9.9231 72.0701C14.9144 77.7153 21.2723 81.9929 28.4621 84.5245C39.5736 88.3074 51.6952 87.9583 62.5394 83.5643C72.0465 79.5486 79.9494 72.623 85.1486 63.8641C86.0993 62.2637 86.9906 60.605 87.7631 58.8882C92.6949 47.8305 93.3189 35.3469 89.4863 23.8527L89.516 23.8818Z" fill="white"/>
<path d="M417.127 13.9008H367.839V20.3608H388.606V75.1837H396.33V20.3608H417.098V13.9008H417.127ZM439.499 58.8299C434.597 65.5227 427.793 70.2368 423.248 70.2368C419.653 70.2368 418.167 68.1126 418.167 62.9329V33.1935H411.126V64.737C411.126 72.4483 415.048 76.5222 422.535 76.5222C428.952 76.5222 434.537 73.2631 439.529 66.5121V75.2128H446.718V33.1935H439.529V58.8299H439.499ZM470.962 69.3929C469.476 69.3929 468.704 68.7527 468.526 67.4724C468.436 66.7158 468.228 63.1948 468.228 62.8456V38.9843H479.548V33.2226H468.228V20.9719H461.157V33.2226L453.997 34.9686V38.9843H461.157V67.065C461.157 72.6229 464.455 76.4349 469.387 76.4349C472.774 76.4349 475.121 75.2128 480.142 71.168L477.201 66.5412C474.26 68.7527 472.833 69.5093 471.051 69.5093L470.962 69.4511V69.3929ZM504.118 32.0005C492.501 32.0005 482.965 42.0106 482.965 54.174C482.965 66.3375 492.472 76.3476 504.118 76.3476C515.764 76.3476 525.212 66.3084 525.212 54.2322C525.212 42.1561 515.705 32.0587 504.207 32.0587L504.118 32.0005ZM504.118 70.1204C496.572 70.1204 490.719 63.0784 490.719 54.1449C490.719 45.2115 496.601 38.1695 504.118 38.1695C511.635 38.1695 517.398 45.2115 517.398 54.1449C517.398 63.0784 511.635 70.1786 504.177 70.1786L504.088 70.1204H504.118ZM540.245 40.8757V33.1644H533.174V75.1837H540.245V50.1293C544.286 42.8836 547.702 39.1007 550.317 39.1007C551.149 39.1007 551.921 39.5662 553.347 40.7884L556.823 35.0268C555.427 33.4263 553.496 32.4078 551.357 32.146C548.148 32.0587 545.504 34.0956 540.245 40.8757ZM580.502 51.2641C572.748 48.0923 571.649 47.423 569.925 45.7935C569.272 45.0951 568.886 44.1639 568.915 43.2036C568.915 40.0318 572.035 37.9367 576.788 37.9367C578.452 37.9367 580.086 38.1986 581.691 38.6642C583.889 39.2171 585.969 40.1773 587.811 41.4577L591.317 35.7834C588.791 34.212 585.939 33.1353 582.998 32.6115C581.186 32.2914 579.373 32.1169 577.531 32.146C567.519 32.146 561.28 36.6854 561.28 44.0184C561.28 49.1108 564.102 52.0207 572.391 55.4253C580.027 58.4807 582.017 59.6738 583.711 62.1181C584.275 62.9911 584.543 63.9805 584.543 64.9989C584.543 68.229 581.334 70.5569 576.996 70.5569C573.194 70.4696 569.48 69.4802 566.152 67.6761L563.984 66.5703L561.042 72.3319C564.162 74.107 567.578 75.3001 571.144 75.8529C573.104 76.2021 575.065 76.4058 577.026 76.4058C586.355 76.4058 591.941 71.8664 591.941 64.3588C592.03 57.7241 589.475 54.8724 580.443 51.1477V51.235L580.502 51.2641ZM155.621 13.9008L137.913 61.6816C137.527 62.6128 137.349 63.6313 137.349 64.6497C137.26 63.6313 137.022 62.6419 136.695 61.6816L118.216 13.9008H109.927L134.467 76.6968H139.191L163.345 13.9008H155.621ZM193.293 68.3453V42.5344C193.293 36.0452 187.915 32.0587 179.329 32.0587C170.178 32.0587 163.939 35.8997 163.939 41.4286C163.91 42.3598 164.147 43.2618 164.682 44.0184L171.872 42.5344C171.634 42.0397 171.515 41.4868 171.486 40.963C171.486 38.5478 173.447 37.3547 177.992 37.3547C183.459 37.3547 186.103 39.1298 186.103 42.5635V50.1584L171.248 53.5921C165.484 54.5232 161.384 59.5865 161.741 65.2899C161.384 71.0516 165.871 75.9984 171.753 76.3476C172.228 76.3476 172.704 76.3476 173.149 76.3476C176.328 76.2894 179.448 75.4747 182.211 73.9324C183.875 73.0012 185.449 71.8955 186.816 70.6151C187.202 74.6017 189.282 76.0857 195.105 76.3767L196.828 70.6151C194.57 70.2368 193.441 69.5093 193.263 68.3744H193.323L193.293 68.3453ZM186.133 64.737C180.012 69.1019 177.814 70.1204 174.605 70.1204C171.664 70.3532 169.109 68.1999 168.842 65.3481C168.842 65.1153 168.842 64.8534 168.842 64.6497C168.812 63.0784 169.228 61.5361 170.089 60.1685L186.162 56.0946V64.7079L186.133 64.737ZM212.069 40.8757V33.1644H204.999V75.1837H212.069V50.1293C216.14 42.8836 219.527 39.1007 222.171 39.1007C223.003 39.1007 223.775 39.5662 225.172 40.7884L228.677 35.0268C227.281 33.4263 225.32 32.4078 223.181 32.146C219.972 32.0587 217.328 34.0956 212.069 40.8757ZM251.554 51.2641C243.829 48.0923 242.7 47.423 241.007 45.7935C240.324 45.0951 239.937 44.1639 239.967 43.2036C239.967 40.0318 243.087 37.9367 247.84 37.9367C249.504 37.9367 251.138 38.1986 252.742 38.6642C254.941 39.2171 257.021 40.1773 258.863 41.4577L262.368 35.7834C259.843 34.212 257.021 33.1353 254.079 32.6115C252.267 32.2914 250.425 32.1169 248.583 32.146C238.6 32.146 232.332 36.6854 232.332 44.0184C232.332 49.1108 235.154 52.0207 243.443 55.4253C251.079 58.4807 253.069 59.6738 254.763 62.1181C255.327 62.9911 255.595 63.9805 255.595 64.9989C255.595 68.229 252.386 70.5569 248.048 70.5569C244.245 70.4696 240.532 69.4802 237.204 67.6761L235.035 66.5703L232.094 72.3319C235.214 74.107 238.63 75.3001 242.195 75.8529C244.156 76.2021 246.117 76.4058 248.078 76.4058C257.407 76.4058 262.992 71.8664 262.992 64.3588C263.081 57.7241 260.556 54.8724 251.495 51.1477V51.235L251.554 51.2641ZM274.401 13.9008C271.846 13.9008 269.736 15.9086 269.736 18.4111C269.736 20.9137 271.786 22.9797 274.341 22.9797C276.897 22.9797 279.006 20.9719 279.006 18.4693C279.006 15.9668 276.956 13.9299 274.401 13.9299V13.9008ZM270.806 75.1546H277.877V33.1935H270.806V75.1546ZM304.408 69.3638C302.922 69.3638 302.15 68.7236 301.972 67.4433C301.972 66.6867 301.675 63.1657 301.675 62.8165V38.9843H312.994V33.2226H301.675V20.9719H294.604V33.2226H287.444V38.9843H294.604V67.065C294.604 72.6229 297.901 76.4349 302.833 76.4349C306.22 76.4349 308.567 75.2128 313.588 71.168L310.647 66.5412C307.617 68.7527 306.191 69.5093 304.408 69.5093V69.422V69.3638ZM346.685 33.1935L337.921 58.8881L336.97 62.962L335.544 58.8881L325.264 33.1935H317.391L333.256 70.586C331.711 75.0964 329.721 79.4321 327.374 83.5642C325.205 87.5217 322.472 91.1882 319.263 94.4182L324.819 98.6958C327.166 95.9023 329.305 92.9633 331.236 89.8788C333.642 85.9795 335.633 81.8474 337.119 77.5698L354.083 33.2226H346.685V33.1935Z" fill="white"/>
</g>
<defs>
<clipPath id="clip0_12_33">
<rect width="592" height="96.2601" fill="white" transform="translate(0 2.40649)"/>
</clipPath>
</defs>
</svg>
